# xmcd
#
# Track frame offsets:
#	150
#	14548
#	38184
#	52827
#	71292
#	91315
#	112755
#	130375
#	157502
#	179853
#	194591
#	209403
#	237378
#	250990
#	268728
#	287013
#	308027
#
# Disc length: 4640 seconds
#
# Revision: 1
# Processed by: cddbd v1.5.2PL0 Copyright (c) Steve Scherf et al.
# Submitted via: audiograbber 1.82.02
#
DISCID=ef121e11
DTITLE=Various Artist - Love Me forever CD2
DYEAR=2008
DGENRE=
TTITLE0=The Rockmelons with Deni Hines - Ain't no sunshine
TTITLE1=Will Smith - Just the two of Us
TTITLE2=Gabrielle - Out of reach ( Bridget Jones's Diary )
TTITLE3=Randy Crawford - You might need somebody
TTITLE4=Imagination - Body talk
TTITLE5=All Saints - Never ever
TTITLE6=Take That - Back for good
TTITLE7=Leonard Cohen - Dance me to the end of love
TTITLE8=Santa Esmeralda - You're my everything
TTITLE9=Glen Medeiros - Nothing's gonna change My love
TTITLE10=Barry Manilow - Mandy
TTITLE11=Sade - Is it a crime
TTITLE12=Johnny Logan - Hold Me now
TTITLE13=Joe Cocker - Sorry seems to be the hardest word
TTITLE14=Tina Turner - Missing You
TTITLE15=Michael Jackson - Dirty Diana
TTITLE16=Guns'N'Roses - November Rain
EXTD=
EXTT0=
EXTT1=
EXTT2=
EXTT3=
EXTT4=
EXTT5=
EXTT6=
EXTT7=
EXTT8=
EXTT9=
EXTT10=
EXTT11=
EXTT12=
EXTT13=
EXTT14=
EXTT15=
EXTT16=
PLAYORDER=
